<svg width="2845" height="1534" viewBox="0 0 2845 1534" fill="none" xmlns="http://www.w3.org/2000/svg">
<circle cx="1424.5" cy="578.049" r="32.5" stroke="white" stroke-width="20"/>
<circle cx="1428.5" cy="495.049" r="306.5" stroke="white" stroke-width="20"/>
<circle cx="1424.5" cy="491.049" r="233.5" stroke="white" stroke-width="20"/>
<path d="M1050.26 320.064L1057.62 326.832L1050.56 345.546L1043.2 338.778L1050.26 320.064ZM1043.2 338.778L998.787 297.946L1005.84 279.232L1050.26 320.064L1043.2 338.778Z" fill="white"/>
<path d="M1164.56 331.563L1050.41 335.625" stroke="white" stroke-width="20"/>
<path d="M944.279 265.015C943.868 246.071 959.092 230.186 978.523 229.764C997.954 229.342 1013.85 244.552 1014.26 263.497C1014.67 282.441 999.451 298.326 980.019 298.748C960.588 299.17 944.69 283.96 944.279 265.015Z" stroke="white" stroke-width="20"/>
<path d="M1223.15 132.473L1230.57 139.168L1248.55 130.392L1241.12 123.696L1223.15 132.473ZM1241.12 123.696L1196.31 83.3013L1178.34 92.0779L1223.15 132.473L1241.12 123.696Z" fill="white"/>
<path d="M1245.3 245.202L1238.65 131.167" stroke="white" stroke-width="20"/>
<path d="M1158.42 32.1149C1139.52 33.479 1125.13 50.1225 1126.53 69.5077C1127.93 88.8929 1144.56 103.297 1163.46 101.933C1182.36 100.569 1196.75 83.9257 1195.35 64.5405C1193.95 45.1553 1177.32 30.7508 1158.42 32.1149Z" stroke="white" stroke-width="20"/>
<path d="M1629.74 133.097L1622.5 139.995L1604.3 131.717L1611.54 124.819L1629.74 133.097ZM1611.54 124.819L1655.21 83.2033L1673.42 91.4806L1629.74 133.097L1611.54 124.819Z" fill="white"/>
<path d="M1610.71 246.394L1614.21 132.219" stroke="white" stroke-width="20"/>
<path d="M1691.68 30.991C1710.61 31.833 1725.45 48.0731 1724.59 67.4895C1723.72 86.9059 1707.5 101.764 1688.57 100.922C1669.64 100.08 1654.79 83.8398 1655.66 64.4234C1656.52 45.007 1672.75 30.149 1691.68 30.991Z" stroke="white" stroke-width="20"/>
<path d="M1805.5 318.01L1798.32 324.978L1805.89 343.491L1813.07 336.522L1805.5 318.01ZM1813.07 336.522L1856.33 294.48L1848.76 275.968L1805.5 318.01L1813.07 336.522Z" fill="white"/>
<path d="M1691.55 332.659L1805.77 333.57" stroke="white" stroke-width="20"/>
<path d="M1909.91 260.058C1909.8 241.11 1894.14 225.651 1874.71 225.765C1855.27 225.88 1839.8 241.523 1839.91 260.471C1840.03 279.42 1855.68 294.879 1875.12 294.764C1894.55 294.649 1910.02 279.007 1909.91 260.058Z" stroke="white" stroke-width="20"/>
<path d="M1236.83 864.384L1243.82 857.237L1262.31 864.874L1255.31 872.021L1236.83 864.384ZM1255.31 872.021L1213.11 915.136L1194.63 907.499L1236.83 864.384L1255.31 872.021Z" fill="white"/>
<path d="M1251.89 750.491L1252.39 864.718" stroke="white" stroke-width="20"/>
<path d="M1191.59 970.76C1172.65 970.579 1157.24 954.867 1157.43 935.433C1157.61 915.998 1173.31 900.583 1192.26 900.763C1211.21 900.944 1226.61 916.656 1226.43 936.091C1226.24 955.526 1210.54 970.941 1191.59 970.76Z" stroke="white" stroke-width="20"/>
<path d="M1054.73 685.718L1061.65 678.503L1053.44 660.266L1046.52 667.481L1054.73 685.718ZM1046.52 667.481L1004.74 711.007L1012.95 729.244L1054.73 685.718L1046.52 667.481Z" fill="white"/>
<path d="M1172 667.339L1053.91 670.177" stroke="white" stroke-width="20"/>
<path d="M952.399 747.279C953.172 766.212 969.358 781.115 988.777 780.322C1008.2 779.529 1023.11 763.355 1022.34 744.422C1021.57 725.489 1005.38 710.586 985.962 711.379C966.543 712.172 951.626 728.346 952.399 747.279Z" stroke="white" stroke-width="20"/>
<path d="M1805.36 679.653L1798.08 672.797L1805.36 654.169L1812.64 661.026L1805.36 679.653ZM1812.64 661.026L1856.56 702.392L1849.27 721.019L1805.36 679.653L1812.64 661.026Z" fill="white"/>
<path d="M1684 668.34L1805.55 664.076" stroke="white" stroke-width="20"/>
<path d="M1917.28 733.903C1917.41 752.851 1901.94 768.502 1882.51 768.627C1863.07 768.752 1847.41 753.301 1847.29 734.352C1847.16 715.404 1862.63 699.753 1882.06 699.628C1901.5 699.503 1917.16 714.954 1917.28 733.903Z" stroke="white" stroke-width="20"/>
<path d="M1629.73 864.566L1622.4 857.757L1604.3 866.259L1611.62 873.067L1629.73 864.566ZM1611.62 873.067L1655.81 914.142L1673.91 905.641L1629.73 864.566L1611.62 873.067Z" fill="white"/>
<path d="M1612 740.34L1614.2 865.635" stroke="white" stroke-width="20"/>
<path d="M1685.97 973.736C1704.89 972.66 1719.53 956.239 1718.43 936.834C1717.32 917.43 1700.91 902.773 1682 903.848C1663.08 904.924 1648.43 921.345 1649.54 940.75C1650.64 960.154 1667.05 974.811 1685.97 973.736Z" stroke="white" stroke-width="20"/>
<path d="M1305.09 460.55C1337.37 436.027 1378.05 422.598 1420.06 422.598C1462.07 422.598 1502.75 436.027 1535.03 460.55" stroke="white" stroke-width="20" stroke-linecap="round" stroke-linejoin="round"/>
<path d="M1249.83 422.598C1296.85 378.924 1357.38 354.827 1420.06 354.827C1482.74 354.827 1543.27 378.924 1590.29 422.598" stroke="white" stroke-width="20" stroke-linecap="round" stroke-linejoin="round"/>
<path d="M1355.42 512.056C1375.17 495.597 1398.79 486.755 1423.02 486.755C1447.25 486.755 1470.87 495.597 1490.62 512.056" stroke="white" stroke-width="20" stroke-linecap="round" stroke-linejoin="round"/>
<circle cx="982" cy="494.549" r="35" stroke="white" stroke-width="20"/>
<path d="M1017 497.049H1117" stroke="white" stroke-width="20"/>
<circle cx="1428" cy="50.5496" r="35" transform="rotate(90 1428 50.5496)" stroke="white" stroke-width="20"/>
<path d="M1426.5 85.5496V185.55" stroke="white" stroke-width="20"/>
<circle cx="1424" cy="941.55" r="35" transform="rotate(-90 1424 941.55)" stroke="white" stroke-width="20"/>
<path d="M1425.5 906.55V806.55" stroke="white" stroke-width="20"/>
<circle cx="45" cy="45" r="35" transform="matrix(-1 0 0 1 1927 449.549)" stroke="white" stroke-width="20"/>
<path d="M1847.01 495.799H1733.99" stroke="white" stroke-width="20"/>
<path d="M275.21 1498.34V1409.09L142.56 1248.09H211.86L303.21 1361.49L394.21 1248.09H463.51L331.56 1408.74V1498.34H275.21ZM540.198 1500.09C508.931 1500.09 484.548 1492.39 467.048 1476.99C449.548 1461.36 440.798 1438.49 440.798 1408.39C440.798 1378.06 449.548 1355.19 467.048 1339.79C484.548 1324.16 508.931 1316.34 540.198 1316.34H604.948C636.215 1316.34 660.598 1324.16 678.098 1339.79C695.598 1355.19 704.348 1378.06 704.348 1408.39C704.348 1438.49 695.598 1461.36 678.098 1476.99C660.598 1492.39 636.215 1500.09 604.948 1500.09H540.198ZM540.198 1459.84H604.948C620.115 1459.84 631.665 1455.64 639.598 1447.24C647.765 1438.84 651.848 1425.89 651.848 1408.39C651.848 1390.66 647.765 1377.59 639.598 1369.19C631.665 1360.79 620.115 1356.59 604.948 1356.59H540.198C525.031 1356.59 513.365 1360.79 505.198 1369.19C497.265 1377.59 493.298 1390.66 493.298 1408.39C493.298 1425.89 497.265 1438.84 505.198 1447.24C513.365 1455.64 525.031 1459.84 540.198 1459.84ZM803.833 1498.34C783.299 1498.34 768.249 1493.21 758.683 1482.94C749.349 1472.67 744.683 1459.37 744.683 1443.04V1318.09H795.433V1437.09C795.433 1451.09 802.433 1458.09 816.433 1458.09H889.233C903.233 1458.09 910.233 1451.09 910.233 1437.09V1318.09H960.983V1443.04C960.983 1459.37 956.199 1472.67 946.633 1482.94C937.299 1493.21 922.366 1498.34 901.833 1498.34H803.833ZM1101.95 1498.34C1081.65 1498.34 1066.72 1493.32 1057.15 1483.29C1047.59 1473.02 1042.8 1459.61 1042.8 1443.04V1358.34H990.653V1318.09H1042.8V1262.79H1093.55V1318.09H1168.45V1358.34H1093.55V1436.74C1093.55 1450.97 1100.55 1458.09 1114.55 1458.09H1178.25V1498.34H1101.95ZM1214.84 1498.34V1248.09H1265.59V1318.09H1371.99C1392.53 1318.09 1407.46 1323.22 1416.79 1333.49C1426.36 1343.52 1431.14 1356.82 1431.14 1373.39V1498.34H1380.39V1379.34C1380.39 1365.34 1373.39 1358.34 1359.39 1358.34H1265.59V1498.34H1214.84ZM1483.52 1498.34V1248.09H1693.17C1719.07 1248.09 1739.14 1254.62 1753.37 1267.69C1767.84 1280.76 1775.07 1300.59 1775.07 1327.19C1775.07 1353.79 1767.84 1373.62 1753.37 1386.69C1739.14 1399.76 1719.07 1406.29 1693.17 1406.29H1539.52V1498.34H1483.52ZM1686.52 1293.59H1539.52V1360.44L1686.52 1360.79C1696.79 1360.79 1704.61 1358.22 1709.97 1353.09C1715.57 1347.96 1718.37 1339.32 1718.37 1327.19C1718.37 1314.82 1715.57 1306.19 1709.97 1301.29C1704.61 1296.16 1696.79 1293.59 1686.52 1293.59ZM1815.19 1498.34V1248.09H1865.94V1498.34H1815.19ZM1962.85 1498.34C1943.95 1498.34 1929.48 1493.56 1919.45 1483.99C1909.42 1474.42 1904.4 1460.77 1904.4 1443.04C1904.4 1425.54 1909.42 1412.01 1919.45 1402.44C1929.48 1392.87 1943.95 1388.09 1962.85 1388.09H2097.25V1379.69C2097.25 1365.46 2090.25 1358.34 2076.25 1358.34H1927.85V1318.09H2089.55C2110.78 1318.09 2125.83 1322.99 2134.7 1332.79C2143.57 1342.36 2148 1355.89 2148 1373.39V1498.34H1962.85ZM1971.95 1458.09H2097.25V1428.34H1971.95C1967.52 1428.34 1964.02 1429.74 1961.45 1432.54C1959.12 1435.11 1957.95 1438.61 1957.95 1443.04C1957.95 1447.47 1959.12 1451.09 1961.45 1453.89C1964.02 1456.69 1967.52 1458.09 1971.95 1458.09ZM2289.53 1500.09C2258.26 1500.09 2233.88 1492.39 2216.38 1476.99C2198.88 1461.36 2190.13 1438.49 2190.13 1408.39C2190.13 1378.06 2198.88 1355.19 2216.38 1339.79C2233.88 1324.16 2258.26 1316.34 2289.53 1316.34H2406.78V1356.59H2289.53C2274.36 1356.59 2262.69 1360.79 2254.53 1369.19C2246.59 1377.59 2242.63 1390.66 2242.63 1408.39C2242.63 1425.89 2246.59 1438.84 2254.53 1447.24C2262.69 1455.64 2274.36 1459.84 2289.53 1459.84H2410.28V1500.09H2289.53ZM2539.29 1500.09C2508.02 1500.09 2483.64 1492.39 2466.14 1476.99C2448.64 1461.36 2439.89 1438.49 2439.89 1408.39C2439.89 1378.06 2448.64 1355.19 2466.14 1339.79C2483.64 1324.16 2508.02 1316.34 2539.29 1316.34H2626.79C2647.32 1316.34 2662.95 1321.24 2673.69 1331.04C2684.65 1340.61 2690.14 1354.37 2690.14 1372.34C2690.14 1408.97 2669.02 1427.29 2626.79 1427.29H2494.49C2499.39 1448.99 2514.32 1459.84 2539.29 1459.84H2681.04V1500.09H2539.29ZM2539.29 1356.59C2515.25 1356.59 2500.44 1366.74 2494.84 1387.04H2624.34C2629 1387.04 2632.62 1385.64 2635.19 1382.84C2637.99 1380.04 2639.39 1376.19 2639.39 1371.29C2639.39 1361.49 2634.37 1356.59 2624.34 1356.59H2539.29Z" fill="white"/>
</svg>
