<svg width="3459" height="648" viewBox="0 0 3459 648" fill="none" xmlns="http://www.w3.org/2000/svg">
<path d="M405.406 371.135C405.406 380.683 397.666 388.423 388.119 388.423C378.571 388.423 370.832 380.683 370.832 371.135C370.832 361.588 378.571 353.848 388.119 353.848C397.666 353.848 405.406 361.588 405.406 371.135Z" stroke="#0A375D" stroke-width="20"/>
<path d="M583.895 317.845C583.895 424.552 497.393 511.054 390.687 511.054C283.98 511.054 197.478 424.552 197.478 317.845C197.478 211.139 283.98 124.637 390.687 124.637C497.393 124.637 583.895 211.139 583.895 317.845Z" stroke="#0A375D" stroke-width="20"/>
<path d="M534.458 315.277C534.458 396.098 468.939 461.616 388.119 461.616C307.298 461.616 241.78 396.098 241.78 315.277C241.78 234.457 307.298 168.938 388.119 168.938C468.939 168.938 534.458 234.457 534.458 315.277Z" stroke="#0A375D" stroke-width="20"/>
<path d="M149.098 202.147L156.46 208.915L149.404 227.629L142.042 220.861L149.098 202.147ZM142.042 220.861L113.528 194.645L120.583 175.931L149.098 202.147L142.042 220.861Z" fill="#0A375D"/>
<path d="M221.226 212.88L147.932 215.487" stroke="#0A375D" stroke-width="20"/>
<path d="M83.3721 170.075C83.1519 159.926 91.32 151.327 101.857 151.098C112.394 150.869 120.927 159.106 121.148 169.255C121.368 179.404 113.2 188.003 102.663 188.232C92.1258 188.46 83.5924 180.224 83.3721 170.075Z" stroke="#0A375D" stroke-width="20"/>
<path d="M255.624 86.6244L263.051 93.3202L281.023 84.5436L273.595 77.8478L255.624 86.6244ZM273.595 77.8478L244.825 51.9124L226.854 60.689L255.624 86.6244L273.595 77.8478Z" fill="#0A375D"/>
<path d="M273.062 157.431L268.797 84.2153" stroke="#0A375D" stroke-width="20"/>
<path d="M217.54 24.1894C207.415 24.9202 199.618 33.8573 200.377 44.3695C201.136 54.8817 210.135 62.6066 220.26 61.8758C230.385 61.145 238.182 52.2078 237.423 41.6957C236.664 31.1835 227.665 23.4586 217.54 24.1894Z" stroke="#0A375D" stroke-width="20"/>
<path d="M523.154 86.936L515.914 93.8341L497.707 85.5568L504.947 78.6586L523.154 86.936ZM504.947 78.6586L532.99 51.9391L551.197 60.2164L523.154 86.936L504.947 78.6586Z" fill="#0A375D"/>
<path d="M507.677 158.197L509.919 84.8911" stroke="#0A375D" stroke-width="20"/>
<path d="M559.5 23.4736C569.641 23.9247 577.681 32.6432 577.213 43.1723C576.745 53.7014 567.962 61.6717 557.821 61.2206C547.679 60.7695 539.639 52.051 540.107 41.5219C540.576 30.9928 549.358 23.0225 559.5 23.4736Z" stroke="#0A375D" stroke-width="20"/>
<path d="M631.382 200.864L624.21 207.833L631.779 226.345L638.951 219.377L631.382 200.864ZM638.951 219.377L666.732 192.384L659.162 173.872L631.382 200.864L638.951 219.377Z" fill="#0A375D"/>
<path d="M559.577 213.584L632.915 214.168" stroke="#0A375D" stroke-width="20"/>
<path d="M696.198 166.991C696.138 156.84 687.736 148.469 677.196 148.532C666.657 148.594 658.354 157.063 658.414 167.214C658.474 177.365 666.876 185.736 677.416 185.673C687.955 185.611 696.258 177.142 696.198 166.991Z" stroke="#0A375D" stroke-width="20"/>
<path d="M264.317 553.61L271.311 546.463L289.796 554.1L282.801 561.247L264.317 553.61ZM282.801 561.247L255.708 588.929L237.223 581.292L264.317 553.61L282.801 561.247Z" fill="#0A375D"/>
<path d="M277.297 481.852L277.614 555.192" stroke="#0A375D" stroke-width="20"/>
<path d="M238.616 619.696C228.465 619.599 220.125 611.167 220.226 600.628C220.326 590.089 228.825 581.817 238.976 581.914C249.127 582.01 257.467 590.443 257.366 600.982C257.266 611.521 248.767 619.793 238.616 619.696Z" stroke="#0A375D" stroke-width="20"/>
<path d="M152.177 443.528L159.102 436.314L150.891 418.077L143.966 425.292L152.177 443.528ZM143.966 425.292L117.145 453.237L125.356 471.474L152.177 443.528L143.966 425.292Z" fill="#0A375D"/>
<path d="M226.001 428.464L150.181 430.286" stroke="#0A375D" stroke-width="20"/>
<path d="M88.5838 479.643C88.998 489.786 97.6872 497.858 108.218 497.428C118.749 496.998 126.751 488.245 126.337 478.102C125.922 467.959 117.233 459.887 106.702 460.317C96.1717 460.747 88.1695 469.5 88.5838 479.643Z" stroke="#0A375D" stroke-width="20"/>
<path d="M631.345 439.705L624.066 432.848L631.348 414.221L638.627 421.077L631.345 439.705ZM638.627 421.077L666.823 447.636L659.541 466.264L631.345 439.705L638.627 421.077Z" fill="#0A375D"/>
<path d="M554.73 429.107L632.771 426.369" stroke="#0A375D" stroke-width="20"/>
<path d="M700.931 471.225C700.996 481.376 692.697 489.849 682.158 489.917C671.619 489.984 663.212 481.618 663.147 471.467C663.082 461.316 671.38 452.843 681.92 452.775C692.459 452.707 700.866 461.073 700.931 471.225Z" stroke="#0A375D" stroke-width="20"/>
<path d="M523.124 553.572L515.8 546.764L497.696 555.265L505.021 562.073L523.124 553.572ZM505.021 562.073L533.391 588.445L551.494 579.944L523.124 553.572L505.021 562.073Z" fill="#0A375D"/>
<path d="M508.503 475.334L509.916 555.78" stroke="#0A375D" stroke-width="20"/>
<path d="M555.791 621.612C565.926 621.036 573.858 612.219 573.26 601.697C572.662 591.174 563.782 583.313 553.647 583.889C543.512 584.465 535.579 593.282 536.178 603.804C536.776 614.327 545.656 622.188 555.791 621.612Z" stroke="#0A375D" stroke-width="20"/>
<g clip-path="url(#clip0_662_2351)">
<path d="M311.453 295.695C332.177 279.951 358.296 271.329 385.267 271.329C412.239 271.329 438.357 279.951 459.082 295.695" stroke="#0A375D" stroke-width="20" stroke-linecap="round" stroke-linejoin="round"/>
<path d="M275.971 271.329C306.161 243.288 345.023 227.816 385.267 227.816C425.512 227.816 464.374 243.288 494.564 271.329" stroke="#0A375D" stroke-width="20" stroke-linecap="round" stroke-linejoin="round"/>
<path d="M343.767 328.765C356.446 318.198 371.615 312.52 387.168 312.52C402.722 312.52 417.89 318.198 430.57 328.765" stroke="#0A375D" stroke-width="20" stroke-linecap="round" stroke-linejoin="round"/>
</g>
<path d="M122.904 317.525C122.904 327.959 114.446 336.417 104.012 336.417C93.578 336.417 85.1196 327.959 85.1196 317.525C85.1196 307.091 93.578 298.632 104.012 298.632C114.446 298.632 122.904 307.091 122.904 317.525Z" stroke="#0A375D" stroke-width="20"/>
<path d="M126.483 319.13H190.688" stroke="#0A375D" stroke-width="20"/>
<path d="M390.366 51.3475C379.932 51.3475 371.474 42.8891 371.474 32.4553C371.474 22.0214 379.932 13.563 390.366 13.563C400.8 13.563 409.258 22.0214 409.258 32.4553C409.258 42.8891 400.8 51.3475 390.366 51.3475Z" stroke="#0A375D" stroke-width="20"/>
<path d="M389.403 54.9269V119.132" stroke="#0A375D" stroke-width="20"/>
<path d="M387.798 585.629C398.232 585.629 406.69 594.087 406.69 604.521C406.69 614.955 398.232 623.413 387.798 623.413C377.364 623.413 368.906 614.955 368.906 604.521C368.906 594.087 377.364 585.629 387.798 585.629Z" stroke="#0A375D" stroke-width="20"/>
<path d="M388.761 582.049V517.844" stroke="#0A375D" stroke-width="20"/>
<path d="M662.964 317.525C662.964 327.959 671.422 336.417 681.856 336.417C692.29 336.417 700.749 327.959 700.749 317.525C700.749 307.091 692.29 298.632 681.856 298.632C671.422 298.632 662.964 307.091 662.964 317.525Z" stroke="#0A375D" stroke-width="20"/>
<path d="M659.394 318.327H586.824" stroke="#0A375D" stroke-width="20"/>
<path d="M889.21 439V349.75L756.56 188.75H825.86L917.21 302.15L1008.21 188.75H1077.51L945.56 349.4V439H889.21ZM1154.2 440.75C1122.93 440.75 1098.55 433.05 1081.05 417.65C1063.55 402.017 1054.8 379.15 1054.8 349.05C1054.8 318.717 1063.55 295.85 1081.05 280.45C1098.55 264.817 1122.93 257 1154.2 257H1218.95C1250.21 257 1274.6 264.817 1292.1 280.45C1309.6 295.85 1318.35 318.717 1318.35 349.05C1318.35 379.15 1309.6 402.017 1292.1 417.65C1274.6 433.05 1250.21 440.75 1218.95 440.75H1154.2ZM1154.2 400.5H1218.95C1234.11 400.5 1245.66 396.3 1253.6 387.9C1261.76 379.5 1265.85 366.55 1265.85 349.05C1265.85 331.317 1261.76 318.25 1253.6 309.85C1245.66 301.45 1234.11 297.25 1218.95 297.25H1154.2C1139.03 297.25 1127.36 301.45 1119.2 309.85C1111.26 318.25 1107.3 331.317 1107.3 349.05C1107.3 366.55 1111.26 379.5 1119.2 387.9C1127.36 396.3 1139.03 400.5 1154.2 400.5ZM1417.83 439C1397.3 439 1382.25 433.867 1372.68 423.6C1363.35 413.333 1358.68 400.033 1358.68 383.7V258.75H1409.43V377.75C1409.43 391.75 1416.43 398.75 1430.43 398.75H1503.23C1517.23 398.75 1524.23 391.75 1524.23 377.75V258.75H1574.98V383.7C1574.98 400.033 1570.2 413.333 1560.63 423.6C1551.3 433.867 1536.37 439 1515.83 439H1417.83ZM1715.95 439C1695.65 439 1680.72 433.983 1671.15 423.95C1661.59 413.683 1656.8 400.267 1656.8 383.7V299H1604.65V258.75H1656.8V203.45H1707.55V258.75H1782.45V299H1707.55V377.4C1707.55 391.633 1714.55 398.75 1728.55 398.75H1792.25V439H1715.95ZM1828.84 439V188.75H1879.59V258.75H1985.99C2006.53 258.75 2021.46 263.883 2030.79 274.15C2040.36 284.183 2045.14 297.483 2045.14 314.05V439H1994.39V320C1994.39 306 1987.39 299 1973.39 299H1879.59V439H1828.84ZM2097.52 439V188.75H2307.17C2333.07 188.75 2353.14 195.283 2367.37 208.35C2381.84 221.417 2389.07 241.25 2389.07 267.85C2389.07 294.45 2381.84 314.283 2367.37 327.35C2353.14 340.417 2333.07 346.95 2307.17 346.95H2153.52V439H2097.52ZM2300.52 234.25H2153.52V301.1L2300.52 301.45C2310.79 301.45 2318.61 298.883 2323.97 293.75C2329.57 288.617 2332.37 279.983 2332.37 267.85C2332.37 255.483 2329.57 246.85 2323.97 241.95C2318.61 236.817 2310.79 234.25 2300.52 234.25ZM2429.19 439V188.75H2479.94V439H2429.19ZM2576.85 439C2557.95 439 2543.48 434.217 2533.45 424.65C2523.42 415.083 2518.4 401.433 2518.4 383.7C2518.4 366.2 2523.42 352.667 2533.45 343.1C2543.48 333.533 2557.95 328.75 2576.85 328.75H2711.25V320.35C2711.25 306.117 2704.25 299 2690.25 299H2541.85V258.75H2703.55C2724.78 258.75 2739.83 263.65 2748.7 273.45C2757.57 283.017 2762 296.55 2762 314.05V439H2576.85ZM2585.95 398.75H2711.25V369H2585.95C2581.52 369 2578.02 370.4 2575.45 373.2C2573.12 375.767 2571.95 379.267 2571.95 383.7C2571.95 388.133 2573.12 391.75 2575.45 394.55C2578.02 397.35 2581.52 398.75 2585.95 398.75ZM2903.53 440.75C2872.26 440.75 2847.88 433.05 2830.38 417.65C2812.88 402.017 2804.13 379.15 2804.13 349.05C2804.13 318.717 2812.88 295.85 2830.38 280.45C2847.88 264.817 2872.26 257 2903.53 257H3020.78V297.25H2903.53C2888.36 297.25 2876.69 301.45 2868.53 309.85C2860.59 318.25 2856.63 331.317 2856.63 349.05C2856.63 366.55 2860.59 379.5 2868.53 387.9C2876.69 396.3 2888.36 400.5 2903.53 400.5H3024.28V440.75H2903.53ZM3153.29 440.75C3122.02 440.75 3097.64 433.05 3080.14 417.65C3062.64 402.017 3053.89 379.15 3053.89 349.05C3053.89 318.717 3062.64 295.85 3080.14 280.45C3097.64 264.817 3122.02 257 3153.29 257H3240.79C3261.32 257 3276.95 261.9 3287.69 271.7C3298.65 281.267 3304.14 295.033 3304.14 313C3304.14 349.633 3283.02 367.95 3240.79 367.95H3108.49C3113.39 389.65 3128.32 400.5 3153.29 400.5H3295.04V440.75H3153.29ZM3153.29 297.25C3129.25 297.25 3114.44 307.4 3108.84 327.7H3238.34C3243 327.7 3246.62 326.3 3249.19 323.5C3251.99 320.7 3253.39 316.85 3253.39 311.95C3253.39 302.15 3248.37 297.25 3238.34 297.25H3153.29Z" fill="#0A375E"/>
<defs>
<clipPath id="clip0_662_2351">
<rect width="240.768" height="192.615" fill="white" transform="translate(267.734 199.388)"/>
</clipPath>
</defs>
</svg>
