<svg width="2845" height="1534" viewBox="0 0 2845 1534" fill="none" xmlns="http://www.w3.org/2000/svg">
<circle cx="1424.5" cy="578.709" r="32.5" stroke="#0A375D" stroke-width="20"/>
<circle cx="1428.5" cy="495.709" r="306.5" stroke="#0A375D" stroke-width="20"/>
<circle cx="1424.5" cy="491.709" r="233.5" stroke="#0A375D" stroke-width="20"/>
<path d="M1050.26 320.724L1057.62 327.492L1050.56 346.206L1043.2 339.438L1050.26 320.724ZM1043.2 339.438L998.788 298.606L1005.84 279.892L1050.26 320.724L1043.2 339.438Z" fill="#0A375D"/>
<path d="M1164.56 332.224L1050.41 336.285" stroke="#0A375D" stroke-width="20"/>
<path d="M944.279 265.676C943.868 246.731 959.092 230.846 978.523 230.425C997.954 230.003 1013.85 245.213 1014.26 264.157C1014.67 283.101 999.451 298.987 980.019 299.408C960.588 299.83 944.69 284.62 944.279 265.676Z" stroke="#0A375D" stroke-width="20"/>
<path d="M1223.15 133.133L1230.57 139.829L1248.55 131.052L1241.12 124.356L1223.15 133.133ZM1241.12 124.356L1196.31 83.9616L1178.34 92.7382L1223.15 133.133L1241.12 124.356Z" fill="#0A375D"/>
<path d="M1245.3 245.862L1238.65 131.827" stroke="#0A375D" stroke-width="20"/>
<path d="M1158.42 32.7753C1139.52 34.1394 1125.13 50.7829 1126.53 70.1681C1127.93 89.5533 1144.56 103.958 1163.46 102.594C1182.36 101.23 1196.75 84.5861 1195.35 65.2009C1193.95 45.8157 1177.32 31.4112 1158.42 32.7753Z" stroke="#0A375D" stroke-width="20"/>
<path d="M1629.74 133.757L1622.5 140.655L1604.3 132.378L1611.54 125.48L1629.74 133.757ZM1611.54 125.48L1655.21 83.8638L1673.42 92.1411L1629.74 133.757L1611.54 125.48Z" fill="#0A375D"/>
<path d="M1610.71 247.055L1614.21 132.88" stroke="#0A375D" stroke-width="20"/>
<path d="M1691.68 31.6514C1710.61 32.4935 1725.45 48.7335 1724.59 68.1499C1723.72 87.5663 1707.5 102.424 1688.57 101.582C1669.64 100.74 1654.79 84.5002 1655.66 65.0838C1656.52 45.6674 1672.75 30.8094 1691.68 31.6514Z" stroke="#0A375D" stroke-width="20"/>
<path d="M1805.5 318.67L1798.32 325.639L1805.89 344.151L1813.07 337.182L1805.5 318.67ZM1813.07 337.182L1856.33 295.141L1848.76 276.629L1805.5 318.67L1813.07 337.182Z" fill="#0A375D"/>
<path d="M1691.55 333.32L1805.77 334.23" stroke="#0A375D" stroke-width="20"/>
<path d="M1909.91 260.718C1909.8 241.77 1894.14 226.311 1874.71 226.426C1855.27 226.54 1839.8 242.183 1839.91 261.132C1840.03 280.08 1855.68 295.539 1875.12 295.424C1894.55 295.31 1910.02 279.667 1909.91 260.718Z" stroke="#0A375D" stroke-width="20"/>
<path d="M1236.83 865.044L1243.82 857.898L1262.31 865.535L1255.31 872.681L1236.83 865.044ZM1255.31 872.681L1213.11 915.796L1194.63 908.16L1236.83 865.044L1255.31 872.681Z" fill="#0A375D"/>
<path d="M1251.89 751.152L1252.39 865.379" stroke="#0A375D" stroke-width="20"/>
<path d="M1191.59 971.421C1172.65 971.24 1157.24 955.528 1157.43 936.093C1157.61 916.659 1173.31 901.243 1192.26 901.424C1211.21 901.605 1226.61 917.317 1226.43 936.752C1226.24 956.186 1210.54 971.602 1191.59 971.421Z" stroke="#0A375D" stroke-width="20"/>
<path d="M1054.73 686.378L1061.65 679.164L1053.44 660.927L1046.52 668.142L1054.73 686.378ZM1046.52 668.142L1004.74 711.668L1012.95 729.904L1054.73 686.378L1046.52 668.142Z" fill="#0A375D"/>
<path d="M1172 668L1053.91 670.838" stroke="#0A375D" stroke-width="20"/>
<path d="M952.399 747.939C953.172 766.872 969.358 781.775 988.777 780.982C1008.2 780.189 1023.11 764.016 1022.34 745.083C1021.57 726.15 1005.38 711.247 985.962 712.04C966.543 712.833 951.626 729.006 952.399 747.939Z" stroke="#0A375D" stroke-width="20"/>
<path d="M1805.36 680.314L1798.08 673.457L1805.36 654.83L1812.64 661.686L1805.36 680.314ZM1812.64 661.686L1856.56 703.052L1849.27 721.68L1805.36 680.314L1812.64 661.686Z" fill="#0A375D"/>
<path d="M1684 669L1805.55 664.737" stroke="#0A375D" stroke-width="20"/>
<path d="M1917.28 734.563C1917.41 753.512 1901.94 769.162 1882.51 769.287C1863.07 769.412 1847.41 753.961 1847.29 735.013C1847.16 716.064 1862.63 700.413 1882.06 700.289C1901.5 700.164 1917.16 715.615 1917.28 734.563Z" stroke="#0A375D" stroke-width="20"/>
<path d="M1629.73 865.226L1622.4 858.418L1604.3 866.919L1611.62 873.727L1629.73 865.226ZM1611.62 873.727L1655.81 914.802L1673.91 906.301L1629.73 865.226L1611.62 873.727Z" fill="#0A375D"/>
<path d="M1612 741L1614.2 866.295" stroke="#0A375D" stroke-width="20"/>
<path d="M1685.97 974.396C1704.89 973.321 1719.53 956.899 1718.43 937.495C1717.32 918.091 1700.91 903.434 1682 904.509C1663.08 905.584 1648.43 922.006 1649.54 941.41C1650.64 960.814 1667.05 975.471 1685.97 974.396Z" stroke="#0A375D" stroke-width="20"/>
<path d="M1305.09 461.21C1337.37 436.687 1378.05 423.258 1420.06 423.258C1462.07 423.258 1502.75 436.687 1535.03 461.21" stroke="#0A375D" stroke-width="20" stroke-linecap="round" stroke-linejoin="round"/>
<path d="M1249.83 423.258C1296.85 379.584 1357.38 355.487 1420.06 355.487C1482.74 355.487 1543.27 379.584 1590.29 423.258" stroke="#0A375D" stroke-width="20" stroke-linecap="round" stroke-linejoin="round"/>
<path d="M1355.42 512.716C1375.17 496.258 1398.79 487.415 1423.02 487.415C1447.25 487.415 1470.87 496.258 1490.62 512.716" stroke="#0A375D" stroke-width="20" stroke-linecap="round" stroke-linejoin="round"/>
<circle cx="982" cy="495.21" r="35" stroke="#0A375D" stroke-width="20"/>
<path d="M1017 497.71H1117" stroke="#0A375D" stroke-width="20"/>
<circle cx="1428" cy="51.21" r="35" transform="rotate(90 1428 51.21)" stroke="#0A375D" stroke-width="20"/>
<path d="M1426.5 86.21V186.21" stroke="#0A375D" stroke-width="20"/>
<circle cx="1424" cy="942.21" r="35" transform="rotate(-90 1424 942.21)" stroke="#0A375D" stroke-width="20"/>
<path d="M1425.5 907.21V807.21" stroke="#0A375D" stroke-width="20"/>
<circle cx="45" cy="45" r="35" transform="matrix(-1 0 0 1 1927 450.21)" stroke="#0A375D" stroke-width="20"/>
<path d="M1847.01 496.46H1733.99" stroke="#0A375D" stroke-width="20"/>
<path d="M275.21 1499V1409.75L142.56 1248.75H211.86L303.21 1362.15L394.21 1248.75H463.51L331.56 1409.4V1499H275.21ZM540.198 1500.75C508.931 1500.75 484.548 1493.05 467.048 1477.65C449.548 1462.02 440.798 1439.15 440.798 1409.05C440.798 1378.72 449.548 1355.85 467.048 1340.45C484.548 1324.82 508.931 1317 540.198 1317H604.948C636.215 1317 660.598 1324.82 678.098 1340.45C695.598 1355.85 704.348 1378.72 704.348 1409.05C704.348 1439.15 695.598 1462.02 678.098 1477.65C660.598 1493.05 636.215 1500.75 604.948 1500.75H540.198ZM540.198 1460.5H604.948C620.115 1460.5 631.665 1456.3 639.598 1447.9C647.765 1439.5 651.848 1426.55 651.848 1409.05C651.848 1391.32 647.765 1378.25 639.598 1369.85C631.665 1361.45 620.115 1357.25 604.948 1357.25H540.198C525.031 1357.25 513.365 1361.45 505.198 1369.85C497.265 1378.25 493.298 1391.32 493.298 1409.05C493.298 1426.55 497.265 1439.5 505.198 1447.9C513.365 1456.3 525.031 1460.5 540.198 1460.5ZM803.833 1499C783.299 1499 768.249 1493.87 758.683 1483.6C749.349 1473.33 744.683 1460.03 744.683 1443.7V1318.75H795.433V1437.75C795.433 1451.75 802.433 1458.75 816.433 1458.75H889.233C903.233 1458.75 910.233 1451.75 910.233 1437.75V1318.75H960.983V1443.7C960.983 1460.03 956.199 1473.33 946.633 1483.6C937.299 1493.87 922.366 1499 901.833 1499H803.833ZM1101.95 1499C1081.65 1499 1066.72 1493.98 1057.15 1483.95C1047.59 1473.68 1042.8 1460.27 1042.8 1443.7V1359H990.653V1318.75H1042.8V1263.45H1093.55V1318.75H1168.45V1359H1093.55V1437.4C1093.55 1451.63 1100.55 1458.75 1114.55 1458.75H1178.25V1499H1101.95ZM1214.84 1499V1248.75H1265.59V1318.75H1371.99C1392.53 1318.75 1407.46 1323.88 1416.79 1334.15C1426.36 1344.18 1431.14 1357.48 1431.14 1374.05V1499H1380.39V1380C1380.39 1366 1373.39 1359 1359.39 1359H1265.59V1499H1214.84ZM1483.52 1499V1248.75H1693.17C1719.07 1248.75 1739.14 1255.28 1753.37 1268.35C1767.84 1281.42 1775.07 1301.25 1775.07 1327.85C1775.07 1354.45 1767.84 1374.28 1753.37 1387.35C1739.14 1400.42 1719.07 1406.95 1693.17 1406.95H1539.52V1499H1483.52ZM1686.52 1294.25H1539.52V1361.1L1686.52 1361.45C1696.79 1361.45 1704.61 1358.88 1709.97 1353.75C1715.57 1348.62 1718.37 1339.98 1718.37 1327.85C1718.37 1315.48 1715.57 1306.85 1709.97 1301.95C1704.61 1296.82 1696.79 1294.25 1686.52 1294.25ZM1815.19 1499V1248.75H1865.94V1499H1815.19ZM1962.85 1499C1943.95 1499 1929.48 1494.22 1919.45 1484.65C1909.42 1475.08 1904.4 1461.43 1904.4 1443.7C1904.4 1426.2 1909.42 1412.67 1919.45 1403.1C1929.48 1393.53 1943.95 1388.75 1962.85 1388.75H2097.25V1380.35C2097.25 1366.12 2090.25 1359 2076.25 1359H1927.85V1318.75H2089.55C2110.78 1318.75 2125.83 1323.65 2134.7 1333.45C2143.57 1343.02 2148 1356.55 2148 1374.05V1499H1962.85ZM1971.95 1458.75H2097.25V1429H1971.95C1967.52 1429 1964.02 1430.4 1961.45 1433.2C1959.12 1435.77 1957.95 1439.27 1957.95 1443.7C1957.95 1448.13 1959.12 1451.75 1961.45 1454.55C1964.02 1457.35 1967.52 1458.75 1971.95 1458.75ZM2289.53 1500.75C2258.26 1500.75 2233.88 1493.05 2216.38 1477.65C2198.88 1462.02 2190.13 1439.15 2190.13 1409.05C2190.13 1378.72 2198.88 1355.85 2216.38 1340.45C2233.88 1324.82 2258.26 1317 2289.53 1317H2406.78V1357.25H2289.53C2274.36 1357.25 2262.69 1361.45 2254.53 1369.85C2246.59 1378.25 2242.63 1391.32 2242.63 1409.05C2242.63 1426.55 2246.59 1439.5 2254.53 1447.9C2262.69 1456.3 2274.36 1460.5 2289.53 1460.5H2410.28V1500.75H2289.53ZM2539.29 1500.75C2508.02 1500.75 2483.64 1493.05 2466.14 1477.65C2448.64 1462.02 2439.89 1439.15 2439.89 1409.05C2439.89 1378.72 2448.64 1355.85 2466.14 1340.45C2483.64 1324.82 2508.02 1317 2539.29 1317H2626.79C2647.32 1317 2662.95 1321.9 2673.69 1331.7C2684.65 1341.27 2690.14 1355.03 2690.14 1373C2690.14 1409.63 2669.02 1427.95 2626.79 1427.95H2494.49C2499.39 1449.65 2514.32 1460.5 2539.29 1460.5H2681.04V1500.75H2539.29ZM2539.29 1357.25C2515.25 1357.25 2500.44 1367.4 2494.84 1387.7H2624.34C2629 1387.7 2632.62 1386.3 2635.19 1383.5C2637.99 1380.7 2639.39 1376.85 2639.39 1371.95C2639.39 1362.15 2634.37 1357.25 2624.34 1357.25H2539.29Z" fill="#0A375E"/>
</svg>
